<?xml version="1.0" encoding="UTF-8"?>
<svg width="64" height="64" viewBox="0 0 64 64" xmlns="http://www.w3.org/2000/svg">
  <!-- Background circle for wheel -->
  <circle cx="32" cy="32" r="28" fill="#333" stroke="#555" stroke-width="2"/>

  <!-- Wheel spokes -->
  <g stroke="#999" stroke-width="2" stroke-linecap="round">
    <line x1="32" y1="10" x2="32" y2="20"/>
    <line x1="54" y1="32" x2="44" y2="32"/>
    <line x1="32" y1="54" x2="32" y2="44"/>
    <line x1="10" y1="32" x2="20" y2="32"/>
  </g>

  <!-- Wheel rim -->
  <circle cx="32" cy="32" r="25" fill="none" stroke="#777" stroke-width="3"/>

  <!-- Flames (using paths) -->
  <g>
    <!-- Flame 1 -->
    <path d="M48,20 Q52,16 56,20 Q52,24 48,20 Z" fill="#ff4444"/>
    <path d="M50,22 Q54,18 58,22 Q54,26 50,22 Z" fill="#ff6666"/>
    <path d="M52,24 Q56,20 60,24 Q56,28 52,24 Z" fill="#ff8888"/>

    <!-- Flame 2 -->
    <path d="M36,16 Q40,12 44,16 Q40,20 36,16 Z" fill="#ff4444"/>
    <path d="M38,18 Q42,14 46,18 Q42,22 38,18 Z" fill="#ff6666"/>
    <path d="M40,20 Q44,16 48,20 Q44,24 40,20 Z" fill="#ff8888"/>

    <!-- Flame 3 -->
    <path d="M20,24 Q24,20 28,24 Q24,28 20,24 Z" fill="#ff4444"/>
    <path d="M22,26 Q26,22 30,26 Q26,30 22,26 Z" fill="#ff6666"/>
    <path d="M24,28 Q28,24 32,28 Q28,32 24,28 Z" fill="#ff8888"/>

    <!-- Flame 4 -->
    <path d="M16,36 Q12,40 16,44 Q20,40 16,36 Z" fill="#ff4444"/>
    <path d="M18,38 Q14,42 18,46 Q22,42 18,38 Z" fill="#ff6666"/>
    <path d="M20,40 Q16,44 20,48 Q16,52 20,40 Z" fill="#ff8888"/>

    <!-- Flame 5 -->
    <path d="M24,52 Q20,56 24,60 Q28,56 24,52 Z" fill="#ff4444"/>
    <path d="M26,54 Q22,58 26,62 Q30,58 26,54 Z" fill="#ff6666"/>
    <path d="M28,56 Q24,60 32,56 Q24,64 28,56 Z" fill="#ff8888"/>

    <!-- Flame 6 -->
    <path d="M40,56 Q44,60 48,56 Q44,64 40,56 Z" fill="#ff4444"/>
    <path d="M42,58 Q46,62 50,58 Q46,66 42,58 Z" fill="#ff6666"/>
    <path d="M44,60 Q48,64 52,60 Q48,68 44,60 Z" fill="#ff8888"/>

    <!-- Flame 7 -->
    <path d="M52,54 Q56,58 60,54 Q56,62 52,54 Z" fill="#ff4444"/>
    <path d="M54,56 Q58,60 62,56 Q58,64 54,56 Z" fill="#ff6666"/>
    <path d="M56,58 Q60,62 64,58 Q60,66 56,58 Z" fill="#ff8888"/>

    <!-- Flame 8 -->
    <path d="M54,38 Q58,42 62,38 Q58,46 54,38 Z" fill="#ff4444"/>
    <path d="M56,40 Q60,44 64,40 Q60,48 56,40 Z" fill="#ff6666"/>
    <path d="M58,42 Q62,46 66,42 Q62,50 58,42 Z" fill="#ff8888"/>
  </g>

  <!-- Wheel center -->
  <circle cx="32" cy="32" r="8" fill="#111"/>

  <!-- Hubcap -->
  <circle cx="32" cy="32" r="5" fill="#777"/>
</svg>